<mxfile host="app.diagrams.net" agent="Mozilla/5.0 (Windows NT 10.0; Win64; x64) AppleWebKit/537.36 (KHTML, like Gecko) Chrome/129.0.0.0 Safari/537.36" version="24.7.16">
  <diagram name="PÃ¡gina-1" id="YroHcQRQfUu3PY1tD6XN">
    <mxGraphModel dx="1509" dy="1958" grid="1" gridSize="10" guides="1" tooltips="1" connect="1" arrows="1" fold="1" page="1" pageScale="1" pageWidth="827" pageHeight="1169" math="0" shadow="0">
      <root>
        <mxCell id="0" />
        <mxCell id="1" parent="0" />
        <mxCell id="TsyOXeWnJBEFi_HCWn3W-2" value="JOGADOR" style="whiteSpace=wrap;html=1;align=center;" parent="1" vertex="1">
          <mxGeometry x="403" y="10" width="100" height="40" as="geometry" />
        </mxCell>
        <mxCell id="TsyOXeWnJBEFi_HCWn3W-3" value="JOGO" style="whiteSpace=wrap;html=1;align=center;" parent="1" vertex="1">
          <mxGeometry x="794" y="80" width="100" height="40" as="geometry" />
        </mxCell>
        <mxCell id="TsyOXeWnJBEFi_HCWn3W-4" value="EQUIPA" style="whiteSpace=wrap;html=1;align=center;" parent="1" vertex="1">
          <mxGeometry x="540" y="240" width="100" height="40" as="geometry" />
        </mxCell>
        <mxCell id="TsyOXeWnJBEFi_HCWn3W-6" value="NumInterno" style="ellipse;whiteSpace=wrap;html=1;align=center;fontStyle=4;" parent="1" vertex="1">
          <mxGeometry x="464" y="320" width="100" height="40" as="geometry" />
        </mxCell>
        <mxCell id="TsyOXeWnJBEFi_HCWn3W-7" value="NumJogador" style="ellipse;whiteSpace=wrap;html=1;align=center;fontStyle=4;" parent="1" vertex="1">
          <mxGeometry x="453" y="80" width="80" height="40" as="geometry" />
        </mxCell>
        <mxCell id="TsyOXeWnJBEFi_HCWn3W-9" value="Nome" style="ellipse;whiteSpace=wrap;html=1;align=center;" parent="1" vertex="1">
          <mxGeometry x="540" y="140" width="100" height="40" as="geometry" />
        </mxCell>
        <mxCell id="TsyOXeWnJBEFi_HCWn3W-10" value="Morada" style="ellipse;whiteSpace=wrap;html=1;align=center;" parent="1" vertex="1">
          <mxGeometry x="690" y="240" width="100" height="40" as="geometry" />
        </mxCell>
        <mxCell id="TsyOXeWnJBEFi_HCWn3W-12" value="AnoFundacao" style="ellipse;whiteSpace=wrap;html=1;align=center;" parent="1" vertex="1">
          <mxGeometry x="390" y="240" width="100" height="40" as="geometry" />
        </mxCell>
        <mxCell id="TsyOXeWnJBEFi_HCWn3W-13" value="" style="endArrow=none;html=1;rounded=0;entryX=0.15;entryY=1.025;entryDx=0;entryDy=0;entryPerimeter=0;exitX=0.62;exitY=0.05;exitDx=0;exitDy=0;exitPerimeter=0;" parent="1" source="TsyOXeWnJBEFi_HCWn3W-6" target="TsyOXeWnJBEFi_HCWn3W-4" edge="1">
          <mxGeometry width="50" height="50" relative="1" as="geometry">
            <mxPoint x="390" y="390" as="sourcePoint" />
            <mxPoint x="440" y="340" as="targetPoint" />
          </mxGeometry>
        </mxCell>
        <mxCell id="TsyOXeWnJBEFi_HCWn3W-14" value="" style="endArrow=none;html=1;rounded=0;entryX=0;entryY=0.5;entryDx=0;entryDy=0;exitX=1;exitY=0.5;exitDx=0;exitDy=0;" parent="1" source="TsyOXeWnJBEFi_HCWn3W-12" target="TsyOXeWnJBEFi_HCWn3W-4" edge="1">
          <mxGeometry width="50" height="50" relative="1" as="geometry">
            <mxPoint x="390" y="390" as="sourcePoint" />
            <mxPoint x="440" y="340" as="targetPoint" />
          </mxGeometry>
        </mxCell>
        <mxCell id="TsyOXeWnJBEFi_HCWn3W-15" value="" style="endArrow=none;html=1;rounded=0;entryX=1;entryY=0.5;entryDx=0;entryDy=0;exitX=0;exitY=0.5;exitDx=0;exitDy=0;" parent="1" source="TsyOXeWnJBEFi_HCWn3W-10" target="TsyOXeWnJBEFi_HCWn3W-4" edge="1">
          <mxGeometry width="50" height="50" relative="1" as="geometry">
            <mxPoint x="480" y="310" as="sourcePoint" />
            <mxPoint x="705" y="200" as="targetPoint" />
          </mxGeometry>
        </mxCell>
        <mxCell id="TsyOXeWnJBEFi_HCWn3W-16" value="Pais" style="ellipse;whiteSpace=wrap;html=1;align=center;" parent="1" vertex="1">
          <mxGeometry x="810" y="230" width="40" height="30" as="geometry" />
        </mxCell>
        <mxCell id="TsyOXeWnJBEFi_HCWn3W-17" value="Rua" style="ellipse;whiteSpace=wrap;html=1;align=center;" parent="1" vertex="1">
          <mxGeometry x="800" y="270" width="60" height="30" as="geometry" />
        </mxCell>
        <mxCell id="TsyOXeWnJBEFi_HCWn3W-18" value="CodPostal" style="ellipse;whiteSpace=wrap;html=1;align=center;" parent="1" vertex="1">
          <mxGeometry x="700" y="340" width="90" height="40" as="geometry" />
        </mxCell>
        <mxCell id="TsyOXeWnJBEFi_HCWn3W-19" value="Localidade" style="ellipse;whiteSpace=wrap;html=1;align=center;" parent="1" vertex="1">
          <mxGeometry x="630" y="300" width="76" height="40" as="geometry" />
        </mxCell>
        <mxCell id="TsyOXeWnJBEFi_HCWn3W-20" value="NumPorta" style="ellipse;whiteSpace=wrap;html=1;align=center;" parent="1" vertex="1">
          <mxGeometry x="790" y="320" width="80" height="40" as="geometry" />
        </mxCell>
        <mxCell id="TsyOXeWnJBEFi_HCWn3W-22" value="Nome" style="ellipse;whiteSpace=wrap;html=1;align=center;" parent="1" vertex="1">
          <mxGeometry x="293" y="15" width="70" height="30" as="geometry" />
        </mxCell>
        <mxCell id="TsyOXeWnJBEFi_HCWn3W-23" value="Genero" style="ellipse;whiteSpace=wrap;html=1;align=center;" parent="1" vertex="1">
          <mxGeometry x="363" y="80" width="70" height="40" as="geometry" />
        </mxCell>
        <mxCell id="TsyOXeWnJBEFi_HCWn3W-24" value="DataNascimento" style="ellipse;whiteSpace=wrap;html=1;align=center;" parent="1" vertex="1">
          <mxGeometry x="348" y="-60" width="100" height="40" as="geometry" />
        </mxCell>
        <mxCell id="TsyOXeWnJBEFi_HCWn3W-28" value="Idade" style="ellipse;whiteSpace=wrap;html=1;align=center;dashed=1;" parent="1" vertex="1">
          <mxGeometry x="537" y="10" width="50" height="40" as="geometry" />
        </mxCell>
        <mxCell id="TsyOXeWnJBEFi_HCWn3W-30" value="NumJogo" style="ellipse;whiteSpace=wrap;html=1;align=center;fontStyle=4;" parent="1" vertex="1">
          <mxGeometry x="794" y="150" width="100" height="40" as="geometry" />
        </mxCell>
        <mxCell id="TsyOXeWnJBEFi_HCWn3W-31" value="Data" style="ellipse;whiteSpace=wrap;html=1;align=center;" parent="1" vertex="1">
          <mxGeometry x="920" y="150" width="56" height="40" as="geometry" />
        </mxCell>
        <mxCell id="TsyOXeWnJBEFi_HCWn3W-32" value="Local" style="ellipse;whiteSpace=wrap;html=1;align=center;" parent="1" vertex="1">
          <mxGeometry x="710" y="160" width="61" height="30" as="geometry" />
        </mxCell>
        <mxCell id="TsyOXeWnJBEFi_HCWn3W-33" value="Visitado" style="ellipse;whiteSpace=wrap;html=1;align=center;" parent="1" vertex="1">
          <mxGeometry x="930" y="85" width="80" height="30" as="geometry" />
        </mxCell>
        <mxCell id="TsyOXeWnJBEFi_HCWn3W-34" value="Resultado?" style="ellipse;whiteSpace=wrap;html=1;align=center;" parent="1" vertex="1">
          <mxGeometry x="799" y="10" width="90" height="40" as="geometry" />
        </mxCell>
        <mxCell id="TsyOXeWnJBEFi_HCWn3W-35" value="Visitante" style="ellipse;whiteSpace=wrap;html=1;align=center;" parent="1" vertex="1">
          <mxGeometry x="690" y="85" width="70" height="30" as="geometry" />
        </mxCell>
        <mxCell id="TsyOXeWnJBEFi_HCWn3W-36" value="" style="endArrow=none;html=1;rounded=0;entryX=0.5;entryY=1;entryDx=0;entryDy=0;exitX=0.5;exitY=0;exitDx=0;exitDy=0;" parent="1" source="TsyOXeWnJBEFi_HCWn3W-30" target="TsyOXeWnJBEFi_HCWn3W-3" edge="1">
          <mxGeometry width="50" height="50" relative="1" as="geometry">
            <mxPoint x="780" y="230" as="sourcePoint" />
            <mxPoint x="830" y="180" as="targetPoint" />
          </mxGeometry>
        </mxCell>
        <mxCell id="TsyOXeWnJBEFi_HCWn3W-37" value="" style="endArrow=none;html=1;rounded=0;entryX=0.18;entryY=1;entryDx=0;entryDy=0;entryPerimeter=0;exitX=1;exitY=0;exitDx=0;exitDy=0;" parent="1" source="TsyOXeWnJBEFi_HCWn3W-32" target="TsyOXeWnJBEFi_HCWn3W-3" edge="1">
          <mxGeometry width="50" height="50" relative="1" as="geometry">
            <mxPoint x="780" y="230" as="sourcePoint" />
            <mxPoint x="830" y="180" as="targetPoint" />
          </mxGeometry>
        </mxCell>
        <mxCell id="TsyOXeWnJBEFi_HCWn3W-38" value="" style="endArrow=none;html=1;rounded=0;entryX=0;entryY=0.5;entryDx=0;entryDy=0;exitX=1;exitY=0.5;exitDx=0;exitDy=0;" parent="1" source="TsyOXeWnJBEFi_HCWn3W-35" target="TsyOXeWnJBEFi_HCWn3W-3" edge="1">
          <mxGeometry width="50" height="50" relative="1" as="geometry">
            <mxPoint x="780" y="230" as="sourcePoint" />
            <mxPoint x="830" y="180" as="targetPoint" />
          </mxGeometry>
        </mxCell>
        <mxCell id="TsyOXeWnJBEFi_HCWn3W-39" value="" style="endArrow=none;html=1;rounded=0;entryX=0.87;entryY=1.025;entryDx=0;entryDy=0;entryPerimeter=0;exitX=0;exitY=0;exitDx=0;exitDy=0;" parent="1" source="TsyOXeWnJBEFi_HCWn3W-31" target="TsyOXeWnJBEFi_HCWn3W-3" edge="1">
          <mxGeometry width="50" height="50" relative="1" as="geometry">
            <mxPoint x="780" y="230" as="sourcePoint" />
            <mxPoint x="830" y="180" as="targetPoint" />
          </mxGeometry>
        </mxCell>
        <mxCell id="TsyOXeWnJBEFi_HCWn3W-40" value="" style="endArrow=none;html=1;rounded=0;entryX=0;entryY=0.5;entryDx=0;entryDy=0;exitX=1;exitY=0.5;exitDx=0;exitDy=0;" parent="1" source="TsyOXeWnJBEFi_HCWn3W-3" target="TsyOXeWnJBEFi_HCWn3W-33" edge="1">
          <mxGeometry width="50" height="50" relative="1" as="geometry">
            <mxPoint x="780" y="230" as="sourcePoint" />
            <mxPoint x="830" y="180" as="targetPoint" />
          </mxGeometry>
        </mxCell>
        <mxCell id="TsyOXeWnJBEFi_HCWn3W-41" value="" style="endArrow=none;html=1;rounded=0;entryX=0.5;entryY=1;entryDx=0;entryDy=0;exitX=0.5;exitY=0;exitDx=0;exitDy=0;" parent="1" source="TsyOXeWnJBEFi_HCWn3W-3" target="TsyOXeWnJBEFi_HCWn3W-34" edge="1">
          <mxGeometry width="50" height="50" relative="1" as="geometry">
            <mxPoint x="780" y="230" as="sourcePoint" />
            <mxPoint x="830" y="180" as="targetPoint" />
          </mxGeometry>
        </mxCell>
        <mxCell id="TsyOXeWnJBEFi_HCWn3W-43" value="" style="endArrow=none;html=1;rounded=0;entryX=0;entryY=1;entryDx=0;entryDy=0;exitX=0.645;exitY=0.075;exitDx=0;exitDy=0;exitPerimeter=0;" parent="1" source="TsyOXeWnJBEFi_HCWn3W-19" target="TsyOXeWnJBEFi_HCWn3W-10" edge="1">
          <mxGeometry width="50" height="50" relative="1" as="geometry">
            <mxPoint x="440" y="340" as="sourcePoint" />
            <mxPoint x="490" y="290" as="targetPoint" />
          </mxGeometry>
        </mxCell>
        <mxCell id="TsyOXeWnJBEFi_HCWn3W-44" value="" style="endArrow=none;html=1;rounded=0;entryX=0.41;entryY=0.975;entryDx=0;entryDy=0;entryPerimeter=0;exitX=0.5;exitY=0;exitDx=0;exitDy=0;" parent="1" source="TsyOXeWnJBEFi_HCWn3W-18" target="TsyOXeWnJBEFi_HCWn3W-10" edge="1">
          <mxGeometry width="50" height="50" relative="1" as="geometry">
            <mxPoint x="440" y="340" as="sourcePoint" />
            <mxPoint x="490" y="290" as="targetPoint" />
          </mxGeometry>
        </mxCell>
        <mxCell id="TsyOXeWnJBEFi_HCWn3W-45" value="" style="endArrow=none;html=1;rounded=0;entryX=0.74;entryY=0.9;entryDx=0;entryDy=0;exitX=0;exitY=0;exitDx=0;exitDy=0;entryPerimeter=0;" parent="1" source="TsyOXeWnJBEFi_HCWn3W-20" target="TsyOXeWnJBEFi_HCWn3W-10" edge="1">
          <mxGeometry width="50" height="50" relative="1" as="geometry">
            <mxPoint x="440" y="340" as="sourcePoint" />
            <mxPoint x="490" y="290" as="targetPoint" />
          </mxGeometry>
        </mxCell>
        <mxCell id="TsyOXeWnJBEFi_HCWn3W-46" value="" style="endArrow=none;html=1;rounded=0;entryX=0.95;entryY=0.675;entryDx=0;entryDy=0;exitX=0;exitY=0;exitDx=0;exitDy=0;entryPerimeter=0;" parent="1" source="TsyOXeWnJBEFi_HCWn3W-17" target="TsyOXeWnJBEFi_HCWn3W-10" edge="1">
          <mxGeometry width="50" height="50" relative="1" as="geometry">
            <mxPoint x="440" y="340" as="sourcePoint" />
            <mxPoint x="490" y="290" as="targetPoint" />
          </mxGeometry>
        </mxCell>
        <mxCell id="TsyOXeWnJBEFi_HCWn3W-47" value="" style="endArrow=none;html=1;rounded=0;entryX=0.94;entryY=0.3;entryDx=0;entryDy=0;entryPerimeter=0;exitX=0;exitY=0.5;exitDx=0;exitDy=0;" parent="1" source="TsyOXeWnJBEFi_HCWn3W-16" target="TsyOXeWnJBEFi_HCWn3W-10" edge="1">
          <mxGeometry width="50" height="50" relative="1" as="geometry">
            <mxPoint x="440" y="340" as="sourcePoint" />
            <mxPoint x="490" y="290" as="targetPoint" />
          </mxGeometry>
        </mxCell>
        <mxCell id="TsyOXeWnJBEFi_HCWn3W-48" value="" style="endArrow=none;html=1;rounded=0;entryX=0.5;entryY=0;entryDx=0;entryDy=0;exitX=0.5;exitY=1;exitDx=0;exitDy=0;" parent="1" source="TsyOXeWnJBEFi_HCWn3W-9" target="TsyOXeWnJBEFi_HCWn3W-4" edge="1">
          <mxGeometry width="50" height="50" relative="1" as="geometry">
            <mxPoint x="350" y="420" as="sourcePoint" />
            <mxPoint x="400" y="370" as="targetPoint" />
          </mxGeometry>
        </mxCell>
        <mxCell id="TsyOXeWnJBEFi_HCWn3W-49" value="" style="endArrow=none;html=1;rounded=0;entryX=1;entryY=0.5;entryDx=0;entryDy=0;exitX=0;exitY=0.5;exitDx=0;exitDy=0;" parent="1" source="TsyOXeWnJBEFi_HCWn3W-28" target="TsyOXeWnJBEFi_HCWn3W-2" edge="1">
          <mxGeometry width="50" height="50" relative="1" as="geometry">
            <mxPoint x="623" y="190" as="sourcePoint" />
            <mxPoint x="673" y="140" as="targetPoint" />
          </mxGeometry>
        </mxCell>
        <mxCell id="TsyOXeWnJBEFi_HCWn3W-50" value="" style="endArrow=none;html=1;rounded=0;entryX=0.5;entryY=1;entryDx=0;entryDy=0;exitX=0.17;exitY=-0.025;exitDx=0;exitDy=0;exitPerimeter=0;" parent="1" source="TsyOXeWnJBEFi_HCWn3W-2" target="TsyOXeWnJBEFi_HCWn3W-24" edge="1">
          <mxGeometry width="50" height="50" relative="1" as="geometry">
            <mxPoint x="623" y="190" as="sourcePoint" />
            <mxPoint x="673" y="140" as="targetPoint" />
          </mxGeometry>
        </mxCell>
        <mxCell id="TsyOXeWnJBEFi_HCWn3W-51" value="" style="endArrow=none;html=1;rounded=0;entryX=1;entryY=0.5;entryDx=0;entryDy=0;exitX=0;exitY=0.5;exitDx=0;exitDy=0;" parent="1" source="TsyOXeWnJBEFi_HCWn3W-2" target="TsyOXeWnJBEFi_HCWn3W-22" edge="1">
          <mxGeometry width="50" height="50" relative="1" as="geometry">
            <mxPoint x="623" y="190" as="sourcePoint" />
            <mxPoint x="673" y="140" as="targetPoint" />
          </mxGeometry>
        </mxCell>
        <mxCell id="TsyOXeWnJBEFi_HCWn3W-52" value="" style="endArrow=none;html=1;rounded=0;entryX=0.11;entryY=1;entryDx=0;entryDy=0;entryPerimeter=0;exitX=0.5;exitY=0;exitDx=0;exitDy=0;" parent="1" source="TsyOXeWnJBEFi_HCWn3W-23" target="TsyOXeWnJBEFi_HCWn3W-2" edge="1">
          <mxGeometry width="50" height="50" relative="1" as="geometry">
            <mxPoint x="623" y="190" as="sourcePoint" />
            <mxPoint x="673" y="140" as="targetPoint" />
          </mxGeometry>
        </mxCell>
        <mxCell id="TsyOXeWnJBEFi_HCWn3W-53" value="" style="endArrow=none;html=1;rounded=0;entryX=0.75;entryY=1;entryDx=0;entryDy=0;exitX=0.5;exitY=0;exitDx=0;exitDy=0;" parent="1" source="TsyOXeWnJBEFi_HCWn3W-7" target="TsyOXeWnJBEFi_HCWn3W-2" edge="1">
          <mxGeometry width="50" height="50" relative="1" as="geometry">
            <mxPoint x="623" y="190" as="sourcePoint" />
            <mxPoint x="673" y="140" as="targetPoint" />
          </mxGeometry>
        </mxCell>
        <mxCell id="anvaRo8LU3gCTNsisomE-1" value="PosiÃ§Ã£o" style="ellipse;whiteSpace=wrap;html=1;align=center;" vertex="1" parent="1">
          <mxGeometry x="480" y="-60" width="100" height="40" as="geometry" />
        </mxCell>
        <mxCell id="anvaRo8LU3gCTNsisomE-2" value="" style="endArrow=none;html=1;rounded=0;entryX=0.38;entryY=1.025;entryDx=0;entryDy=0;entryPerimeter=0;exitX=0.75;exitY=0;exitDx=0;exitDy=0;" edge="1" parent="1" source="TsyOXeWnJBEFi_HCWn3W-2" target="anvaRo8LU3gCTNsisomE-1">
          <mxGeometry width="50" height="50" relative="1" as="geometry">
            <mxPoint x="700" y="210" as="sourcePoint" />
            <mxPoint x="750" y="160" as="targetPoint" />
          </mxGeometry>
        </mxCell>
        <mxCell id="anvaRo8LU3gCTNsisomE-4" value="EQUIPA" style="whiteSpace=wrap;html=1;align=center;" vertex="1" parent="1">
          <mxGeometry x="363" y="520" width="100" height="40" as="geometry" />
        </mxCell>
        <mxCell id="anvaRo8LU3gCTNsisomE-6" value="JOGO" style="whiteSpace=wrap;html=1;align=center;" vertex="1" parent="1">
          <mxGeometry x="780" y="520" width="100" height="40" as="geometry" />
        </mxCell>
        <mxCell id="anvaRo8LU3gCTNsisomE-7" value="JOGOU" style="shape=rhombus;perimeter=rhombusPerimeter;whiteSpace=wrap;html=1;align=center;" vertex="1" parent="1">
          <mxGeometry x="564" y="510" width="120" height="60" as="geometry" />
        </mxCell>
        <mxCell id="anvaRo8LU3gCTNsisomE-17" value="FILIADO_A" style="shape=rhombus;perimeter=rhombusPerimeter;whiteSpace=wrap;html=1;align=center;" vertex="1" parent="1">
          <mxGeometry x="353" y="640" width="120" height="60" as="geometry" />
        </mxCell>
        <mxCell id="anvaRo8LU3gCTNsisomE-19" value="JOGADOR" style="whiteSpace=wrap;html=1;align=center;" vertex="1" parent="1">
          <mxGeometry x="564" y="650" width="100" height="40" as="geometry" />
        </mxCell>
        <mxCell id="anvaRo8LU3gCTNsisomE-21" value="EscalÃ£o" style="ellipse;whiteSpace=wrap;html=1;align=center;" vertex="1" parent="1">
          <mxGeometry x="440" y="750" width="80" height="40" as="geometry" />
        </mxCell>
        <mxCell id="anvaRo8LU3gCTNsisomE-22" value="AnoCorrente" style="ellipse;whiteSpace=wrap;html=1;align=center;" vertex="1" parent="1">
          <mxGeometry x="320" y="750" width="90" height="40" as="geometry" />
        </mxCell>
        <mxCell id="anvaRo8LU3gCTNsisomE-23" value="" style="endArrow=none;html=1;rounded=0;exitX=0.578;exitY=-0.042;exitDx=0;exitDy=0;exitPerimeter=0;entryX=0.343;entryY=0.858;entryDx=0;entryDy=0;entryPerimeter=0;" edge="1" parent="1" source="anvaRo8LU3gCTNsisomE-22" target="anvaRo8LU3gCTNsisomE-17">
          <mxGeometry relative="1" as="geometry">
            <mxPoint x="650" y="710" as="sourcePoint" />
            <mxPoint x="810" y="710" as="targetPoint" />
          </mxGeometry>
        </mxCell>
        <mxCell id="anvaRo8LU3gCTNsisomE-24" value="" style="endArrow=none;html=1;rounded=0;exitX=0;exitY=0;exitDx=0;exitDy=0;entryX=0.659;entryY=0.805;entryDx=0;entryDy=0;entryPerimeter=0;" edge="1" parent="1" source="anvaRo8LU3gCTNsisomE-21" target="anvaRo8LU3gCTNsisomE-17">
          <mxGeometry relative="1" as="geometry">
            <mxPoint x="650" y="710" as="sourcePoint" />
            <mxPoint x="810" y="710" as="targetPoint" />
          </mxGeometry>
        </mxCell>
        <mxCell id="anvaRo8LU3gCTNsisomE-41" value="" style="shape=link;html=1;rounded=0;exitX=0.5;exitY=1;exitDx=0;exitDy=0;entryX=0.5;entryY=0;entryDx=0;entryDy=0;" edge="1" parent="1" source="anvaRo8LU3gCTNsisomE-4" target="anvaRo8LU3gCTNsisomE-17">
          <mxGeometry relative="1" as="geometry">
            <mxPoint x="650" y="710" as="sourcePoint" />
            <mxPoint x="570" y="780" as="targetPoint" />
          </mxGeometry>
        </mxCell>
        <mxCell id="anvaRo8LU3gCTNsisomE-42" value="1" style="resizable=0;html=1;whiteSpace=wrap;align=right;verticalAlign=bottom;" connectable="0" vertex="1" parent="anvaRo8LU3gCTNsisomE-41">
          <mxGeometry x="1" relative="1" as="geometry" />
        </mxCell>
        <mxCell id="anvaRo8LU3gCTNsisomE-63" value="" style="endArrow=none;html=1;rounded=0;exitX=1;exitY=0.5;exitDx=0;exitDy=0;entryX=0;entryY=0.5;entryDx=0;entryDy=0;" edge="1" parent="1" source="anvaRo8LU3gCTNsisomE-4" target="anvaRo8LU3gCTNsisomE-7">
          <mxGeometry relative="1" as="geometry">
            <mxPoint x="650" y="710" as="sourcePoint" />
            <mxPoint x="810" y="710" as="targetPoint" />
          </mxGeometry>
        </mxCell>
        <mxCell id="anvaRo8LU3gCTNsisomE-64" value="N" style="resizable=0;html=1;whiteSpace=wrap;align=right;verticalAlign=bottom;" connectable="0" vertex="1" parent="anvaRo8LU3gCTNsisomE-63">
          <mxGeometry x="1" relative="1" as="geometry" />
        </mxCell>
        <mxCell id="anvaRo8LU3gCTNsisomE-65" value="" style="shape=link;html=1;rounded=0;exitX=1;exitY=0.5;exitDx=0;exitDy=0;entryX=0;entryY=0.5;entryDx=0;entryDy=0;" edge="1" parent="1" source="anvaRo8LU3gCTNsisomE-7" target="anvaRo8LU3gCTNsisomE-6">
          <mxGeometry relative="1" as="geometry">
            <mxPoint x="650" y="710" as="sourcePoint" />
            <mxPoint x="810" y="710" as="targetPoint" />
          </mxGeometry>
        </mxCell>
        <mxCell id="anvaRo8LU3gCTNsisomE-67" value="M" style="resizable=0;html=1;whiteSpace=wrap;align=right;verticalAlign=bottom;" connectable="0" vertex="1" parent="anvaRo8LU3gCTNsisomE-65">
          <mxGeometry x="1" relative="1" as="geometry" />
        </mxCell>
        <mxCell id="anvaRo8LU3gCTNsisomE-68" value="" style="endArrow=none;html=1;rounded=0;exitX=1;exitY=0.5;exitDx=0;exitDy=0;entryX=0;entryY=0.5;entryDx=0;entryDy=0;" edge="1" parent="1" source="anvaRo8LU3gCTNsisomE-17" target="anvaRo8LU3gCTNsisomE-19">
          <mxGeometry relative="1" as="geometry">
            <mxPoint x="410" y="800" as="sourcePoint" />
            <mxPoint x="570" y="800" as="targetPoint" />
          </mxGeometry>
        </mxCell>
        <mxCell id="anvaRo8LU3gCTNsisomE-69" value="N" style="resizable=0;html=1;whiteSpace=wrap;align=right;verticalAlign=bottom;" connectable="0" vertex="1" parent="anvaRo8LU3gCTNsisomE-68">
          <mxGeometry x="1" relative="1" as="geometry" />
        </mxCell>
      </root>
    </mxGraphModel>
  </diagram>
</mxfile>
